<svg width="20" height="20" viewBox="0 0 20 20" fill="none" xmlns="http://www.w3.org/2000/svg">
<path fill-rule="evenodd" clip-rule="evenodd" d="M16.2528 0.477995C18.3134 -0.380586 20.3806 1.68663 19.522 3.74723L13.5985 17.9637C12.4401 20.7439 8.36526 20.274 7.8701 17.303L7.13109 12.8689L2.69701 12.1299C-0.273982 11.6348 -0.74392 7.55996 2.03636 6.40151L16.2528 0.477995ZM17.6759 2.978C17.8476 2.56588 17.4341 2.15243 17.022 2.32415L2.80559 8.24767C1.87883 8.63382 2.03548 9.99208 3.0258 10.1571L7.45989 10.8962C8.30283 11.0366 8.96338 11.6972 9.10387 12.5401L9.84289 16.9742C10.0079 17.9646 11.3662 18.1212 11.7524 17.1944L17.6759 2.978Z" fill="#B1B5C4"/>
</svg>
