<svg width="14" height="9" viewBox="0 0 14 9" fill="none" xmlns="http://www.w3.org/2000/svg">
<path fill-rule="evenodd" clip-rule="evenodd" d="M9.09094 0.2652C9.49676 -0.109407 10.1294 -0.0841039 10.504 0.321715L13.7348 3.82168C14.0884 4.20473 14.0884 4.79517 13.7348 5.17824L10.504 8.67828C10.1294 9.0841 9.49677 9.10941 9.09095 8.73481C8.68513 8.3602 8.65982 7.72755 9.03442 7.32172L10.716 5.49996L0.999999 5.49996C0.447714 5.49996 -7.64154e-07 5.05224 -7.86799e-07 4.49996C-8.09444e-07 3.94768 0.447714 3.49996 0.999999 3.49996L10.716 3.49996L9.03443 1.67828C8.65982 1.27246 8.68513 0.639806 9.09094 0.2652Z" fill="#FCFCFD"/>
</svg>
