<svg width="158" height="40" viewBox="0 0 158 40" fill="none" xmlns="http://www.w3.org/2000/svg">
<path d="M44.5949 15.7508C44.9694 15.7508 45.3099 15.7508 45.7105 15.7508C45.6855 15.2759 45.7166 14.806 45.6253 14.3615C45.4584 13.5489 44.7998 13.1881 44.0996 12.9422C42.8803 12.514 41.6451 12.5482 40.4529 13.032C39.8684 13.2693 39.3228 13.6225 39.2463 14.3617C36.4235 14.3617 33.6126 14.3617 30.7207 14.3617C30.8346 13.6445 30.9085 12.9458 31.0632 12.2656C31.2525 11.4333 31.6093 10.6602 32.0808 9.94657C32.8639 8.76127 33.9371 7.91933 35.2002 7.30333C36.2566 6.78813 37.3711 6.47078 38.5254 6.26654C39.6015 6.07613 40.6816 5.97921 41.7737 5.99467C42.4333 6.004 43.0978 5.9466 43.7518 6.00827C44.6903 6.09676 45.622 6.26101 46.5551 6.40293C47.8395 6.59829 49.0425 7.03539 50.1903 7.64199C51.6722 8.42521 52.8084 9.55514 53.5439 11.0628C53.8686 11.7285 54.0885 12.4545 54.0942 13.2011C54.1315 18.0724 54.1479 22.9439 54.1695 27.8153C54.1736 28.7517 54.1701 29.6881 54.1701 30.6408C51.8854 30.6408 49.6222 30.6408 47.3535 30.6408C47.2013 30.1018 47.0493 29.5631 46.8727 28.9375C46.5881 29.0871 46.3187 29.2137 46.064 29.3651C44.9118 30.0499 43.6771 30.5256 42.3851 30.8646C40.9451 31.2425 39.4805 31.4169 37.9965 31.338C36.2149 31.2434 34.5191 30.8129 33.0582 29.7365C31.666 28.7108 30.7756 27.3022 30.3195 25.647C30.1257 24.9439 30.1342 24.1866 30.0232 23.4582C29.864 22.4144 29.9989 21.4032 30.3409 20.4197C30.7075 19.3656 31.3827 18.5316 32.2795 17.8826C33.5067 16.9946 34.897 16.497 36.3729 16.2356C37.1818 16.0923 37.9973 15.9725 38.8148 15.8962C39.6895 15.8146 40.5699 15.7942 41.448 15.7516C42.0121 15.7243 42.5767 15.6888 43.1412 15.6871C43.6143 15.6857 44.0875 15.7279 44.5949 15.7508ZM42.0173 24.887C42.1708 24.8641 42.324 24.8392 42.4778 24.8188C43.42 24.6939 44.2958 24.3761 45.0618 23.8158C45.3201 23.6269 45.6088 23.3292 45.6616 23.0403C45.758 22.5123 45.689 21.9538 45.689 21.4176C45.6401 21.4 45.6199 21.3862 45.6 21.3865C44.2728 21.4077 42.944 21.3974 41.6192 21.4663C40.9747 21.4998 40.3281 21.6441 39.7 21.8066C39.0535 21.9738 38.6533 22.505 38.6446 23.0683C38.635 23.6934 39.0768 24.2933 39.6561 24.551C40.3964 24.8803 41.1691 24.8966 42.0173 24.887Z" fill="#172941"/>
<path d="M91.3322 30.3313C90.4885 30.5874 89.6771 30.8687 88.8451 31.0595C87.6909 31.324 86.509 31.4129 85.3277 31.3376C83.481 31.2198 81.7379 30.7779 80.2348 29.6059C78.9188 28.5798 78.0938 27.2291 77.6491 25.6516C77.4574 24.9716 77.4568 24.2385 77.3535 23.5319C77.1946 22.4451 77.3196 21.3922 77.6959 20.3659C78.0597 19.3734 78.6881 18.5817 79.5257 17.9505C80.8138 16.9797 82.3053 16.4921 83.8536 16.1762C84.6262 16.0187 85.4209 15.9519 86.2092 15.8952C87.2445 15.8207 88.283 15.7759 89.3209 15.7562C90.5375 15.7331 91.7549 15.7508 93.0341 15.7508C93.0136 15.2834 93.0572 14.8105 92.9592 14.3692C92.7866 13.5916 92.1429 13.1958 91.4701 12.968C90.881 12.7685 90.2282 12.6713 89.6056 12.6799C88.7467 12.6918 87.8941 12.85 87.1712 13.4018C86.874 13.6287 86.6234 13.9893 86.5723 14.3652C83.7627 14.3652 80.9515 14.3652 78.1072 14.3652C78.1118 13.5483 78.2538 12.7651 78.4711 11.9933C78.8705 10.5752 79.6672 9.41048 80.7642 8.4524C81.5708 7.74793 82.4999 7.23044 83.5123 6.9011C84.3672 6.62298 85.2443 6.40313 86.1239 6.21535C86.6347 6.1063 87.1688 6.08983 87.6938 6.06966C88.702 6.03095 89.7155 5.95051 90.7187 6.01456C91.8587 6.08734 92.9934 6.27749 94.124 6.4571C95.1923 6.62681 96.2167 6.98209 97.1714 7.47907C97.8419 7.82813 98.4671 8.28257 99.0637 8.75255C99.8314 9.35733 100.397 10.1422 100.817 11.0297C101.207 11.8536 101.427 12.7161 101.431 13.6319C101.453 19.235 101.476 24.8381 101.499 30.4412C101.499 30.4978 101.499 30.5544 101.499 30.6341C99.2291 30.6341 96.9675 30.6341 94.6753 30.6341C94.5275 30.1176 94.374 29.5811 94.204 28.9874C94.0906 29.0253 93.958 29.0545 93.8388 29.1117C93.0093 29.51 92.1827 29.914 91.3322 30.3313ZM88.0987 24.859C88.8249 24.8225 89.5643 24.8594 90.2742 24.7313C91.2019 24.564 92.0696 24.1908 92.7388 23.4762C92.8552 23.3518 92.996 23.1884 93.0051 23.0358C93.0375 22.4929 93.0178 21.9469 93.0178 21.4522C91.6691 21.4522 90.3559 21.4523 89.0428 21.4522C88.2926 21.4522 87.5667 21.5856 86.871 21.8668C86.148 22.1591 85.8026 22.8581 86.0442 23.5673C86.2915 24.2929 87.1083 24.7704 88.0987 24.859Z" fill="#172941"/>
<path d="M122.564 30.6572C121.55 30.6572 120.571 30.6572 119.578 30.6572C119.421 30.1103 119.267 29.5729 119.094 28.9683C118.963 29.026 118.826 29.0722 118.702 29.1435C117.111 30.0651 115.433 30.7379 113.617 31.0829C112.401 31.3138 111.179 31.4226 109.959 31.3286C108.152 31.1894 106.429 30.7032 105.002 29.5186C104.305 28.9406 103.706 28.2529 103.267 27.4294C102.805 26.5606 102.464 25.6474 102.337 24.6861C102.146 23.2413 102.03 21.7856 102.585 20.3692C102.972 19.3839 103.58 18.5826 104.417 17.9522C105.704 16.9823 107.196 16.4911 108.745 16.1763C109.518 16.0192 110.312 15.9524 111.101 15.8951C112.125 15.8208 113.152 15.7755 114.179 15.7562C115.407 15.7332 116.637 15.7508 117.87 15.7508C117.87 15.2855 117.928 14.8171 117.856 14.37C117.759 13.7703 117.276 13.4318 116.784 13.1586C116.267 12.8711 115.69 12.7932 115.103 12.7094C114.358 12.603 113.662 12.7364 112.973 12.9435C112.413 13.1118 111.881 13.3689 111.604 13.9482C111.543 14.0759 111.499 14.2113 111.438 14.3651C108.659 14.3651 105.847 14.3651 103.003 14.3651C103.007 13.5476 103.15 12.7644 103.367 11.9924C103.767 10.5742 104.564 9.40984 105.661 8.45096C106.459 7.75315 107.379 7.2393 108.378 6.90951C109.242 6.62441 110.127 6.37424 111.022 6.21728C112.608 5.939 114.223 5.91559 115.823 6.0173C117.059 6.09589 118.296 6.30034 119.508 6.56181C121.046 6.89336 122.498 7.50439 123.719 8.51578C125.089 9.65003 126.053 11.0667 126.256 12.9008C126.316 13.4486 126.387 13.9994 126.388 14.5489C126.398 19.7807 126.394 25.0126 126.394 30.2444C126.394 30.3689 126.394 30.4933 126.394 30.6572C125.119 30.6572 123.859 30.6572 122.564 30.6572ZM114.142 21.386C113.658 21.4539 113.167 21.4885 112.694 21.5998C112.284 21.6962 111.871 21.8358 111.5 22.0335C110.669 22.4768 110.64 23.6326 111.463 24.2876C111.998 24.7138 112.634 24.8615 113.285 24.8744C113.91 24.8868 114.548 24.8554 115.159 24.7355C116.086 24.5537 116.955 24.1942 117.626 23.4839C117.749 23.3534 117.89 23.1763 117.9 23.0128C117.935 22.4807 117.913 21.9448 117.913 21.3838C116.66 21.3838 115.433 21.3838 114.142 21.386Z" fill="#172941"/>
<path d="M126.14 8.1043C125.966 7.67317 125.808 7.26486 125.642 6.83421C125.753 6.82933 125.851 6.82127 125.948 6.82124C128.844 6.82057 131.739 6.82251 134.634 6.81705C134.851 6.81664 134.941 6.86671 135.025 7.09905C135.63 8.7744 136.268 10.4376 136.89 12.1068C137.363 13.3742 137.836 14.6415 138.292 15.9148C138.647 16.9082 138.977 17.9109 139.32 18.9089C139.346 18.9857 139.385 19.0583 139.453 19.2123C139.831 18.2038 140.177 17.2836 140.522 16.3631C141.112 14.7877 141.703 13.213 142.29 11.6364C142.858 10.1114 143.421 8.58476 143.983 7.05768C144.059 6.85296 144.196 6.81512 144.401 6.8159C146.452 6.82378 148.504 6.82668 150.555 6.81755C151.302 6.81423 152.049 6.77449 152.796 6.75246C152.905 6.74922 153.015 6.75201 153.182 6.75201C152.986 7.21297 152.813 7.62651 152.636 8.03842C151.981 9.56474 151.326 11.0913 150.668 12.6162C150.262 13.5558 149.848 14.4915 149.441 15.4308C148.865 16.7637 148.294 18.0991 147.717 19.432C147.311 20.3712 146.897 21.3071 146.491 22.2461C145.896 23.6189 145.308 24.9947 144.71 26.3663C144.204 27.5266 143.693 28.6843 143.177 29.8402C142.648 31.027 142.15 32.2298 141.568 33.3901C140.93 34.663 140.133 35.8419 139.054 36.7893C138.149 37.5841 137.09 38.103 135.896 38.2738C134.967 38.4066 134.028 38.4622 133.095 38.5593C132.89 38.5806 132.822 38.4947 132.747 38.3082C132.334 37.277 131.897 36.2555 131.469 35.2302C131.168 34.5095 130.873 33.7863 130.564 33.069C130.506 32.9342 130.396 32.8221 130.341 32.7438C130.716 32.7179 131.181 32.7195 131.634 32.6467C132.386 32.5257 132.856 31.9628 133.293 31.4146C133.945 30.5968 134.314 29.6192 134.657 28.6419C134.721 28.462 134.68 28.2069 134.603 28.0216C133.829 26.1516 133.039 24.2878 132.249 22.4243C131.553 20.7836 130.848 19.1468 130.153 17.5058C129.347 15.6019 128.55 13.694 127.743 11.7904C127.326 10.8077 126.898 9.83021 126.474 8.85065C126.369 8.60893 126.262 8.36827 126.14 8.1043Z" fill="#172941"/>
<path d="M24.967 24.4805C24.1194 26.5505 23.273 28.5931 22.4178 30.6572C22.1715 30.6572 21.9233 30.6572 21.675 30.6572C19.5098 30.6572 17.3446 30.6551 15.1795 30.6604C14.9588 30.6609 14.856 30.6247 14.7585 30.3731C14.2654 29.1017 13.7206 27.8507 13.2019 26.5892C12.692 25.3489 12.1974 24.1023 11.6853 22.863C11.219 21.7347 10.7298 20.616 10.2659 19.4867C9.52658 17.6869 8.80474 15.8799 8.06631 14.0798C7.48192 12.6551 6.8847 11.2358 6.29131 9.81492C5.88442 8.84062 5.47398 7.86782 5.06734 6.89341C5.05551 6.86507 5.06876 6.82617 5.07135 6.76934C5.14543 6.76357 5.21965 6.75276 5.29388 6.75274C8.13142 6.75188 10.969 6.75392 13.8065 6.74812C14.0174 6.74769 14.0961 6.80588 14.1705 7.02216C14.9783 9.37256 15.8031 11.7171 16.6309 14.0605C17.1218 15.4499 17.6278 16.834 18.1236 18.2216C18.2457 18.5632 18.3488 18.9118 18.4743 19.2521C18.5036 19.3318 18.5883 19.391 18.6476 19.4596C18.6892 19.3926 18.7449 19.3306 18.7705 19.2579C19.3107 17.7228 19.8407 16.1842 20.3865 14.6512C21.2347 12.2687 22.0955 9.89079 22.9461 7.50921C23.2157 6.75455 23.2086 6.75201 24.0011 6.75201C26.6336 6.75201 29.266 6.75201 31.8984 6.75201C32.0213 6.75201 32.1442 6.75201 32.2987 6.75201C31.9814 7.52292 31.6779 8.26305 31.3723 9.00232C30.9018 10.1405 30.4312 11.2785 29.9583 12.4157C29.5276 13.4514 29.0902 14.4844 28.6624 15.5214C28.2012 16.6392 27.7508 17.7614 27.2902 18.8795C26.8671 19.9065 26.436 20.9301 26.01 21.9558C25.7064 22.687 25.4057 23.4193 25.1028 24.1508C25.0606 24.2527 25.0132 24.3525 24.967 24.4805Z" fill="#172941"/>
<path d="M55.0591 16.9803C55.155 16.0071 55.4008 15.1016 55.7278 14.2178C56.1953 12.9541 56.8539 11.7903 57.6957 10.7473C58.4026 9.87137 59.2198 9.1021 60.1519 8.45213C61.3001 7.65143 62.5172 6.99343 63.8585 6.61257C64.7255 6.36639 65.6242 6.22626 66.5145 6.07185C66.9981 5.98796 67.4939 5.934 67.9837 5.93768C68.6223 5.94247 69.263 5.99462 69.8979 6.06916C70.5679 6.14783 71.236 6.25698 71.898 6.38831C72.9943 6.60579 74.0353 7.00082 74.9891 7.57793C75.7527 8.03998 76.4641 8.58941 77.1976 9.10149C77.2974 9.17119 77.3915 9.24925 77.5058 9.33693C77.4674 9.39216 77.4378 9.45048 77.3942 9.49507C76.1124 10.8072 74.8276 12.1163 73.5474 13.43C73.2476 13.7377 72.9567 14.0547 72.6731 14.3776C72.5255 14.5456 72.427 14.5352 72.2593 14.3845C71.5534 13.75 70.7189 13.3609 69.7864 13.2161C69.2457 13.1321 68.6922 13.0621 68.1482 13.0826C66.7441 13.1355 65.566 13.6814 64.6562 14.7939C63.8599 15.7674 63.5036 16.881 63.3919 18.1213C63.2831 19.3296 63.4382 20.4821 63.9583 21.5645C64.6523 23.0086 65.7688 23.9592 67.3675 24.2671C68.6907 24.522 69.9751 24.3553 71.1831 23.7744C71.6647 23.5427 72.0792 23.1702 72.5511 22.8431C74.2037 24.5492 75.8871 26.2872 77.574 28.0287C76.601 28.937 75.5221 29.6557 74.3384 30.2161C73.2284 30.7416 72.0675 31.0858 70.8528 31.2863C69.8005 31.4599 68.7466 31.5217 67.6896 31.4742C65.8997 31.3938 64.1641 31.0607 62.5085 30.3232C61.4122 29.8348 60.3662 29.2555 59.4632 28.4848C58.6827 27.8186 57.9828 27.036 57.3457 26.2267C56.4609 25.103 55.8239 23.8197 55.463 22.4307C55.2377 21.5638 55.1221 20.6654 54.9992 19.7753C54.9298 19.2723 54.9207 18.7571 54.9301 18.2482C54.9377 17.8354 55.0135 17.4238 55.0591 16.9803Z" fill="#172941"/>
<path d="M149.151 29.3039C148.987 28.8844 148.751 28.4952 148.707 28.0852C148.528 26.4281 149.081 25.063 150.641 24.272C152.238 23.4621 154.379 23.9919 155.338 25.6505C156.142 27.0415 155.932 29.0958 154.649 30.1975C154.022 30.7362 153.305 31.0514 152.454 31.079C151.638 31.1056 150.886 30.9454 150.212 30.4911C149.772 30.1943 149.398 29.8195 149.151 29.3039ZM153.336 29.6684C154.166 29.1541 154.657 28.4635 154.651 27.428C154.644 26.0803 153.361 24.7745 151.769 25.1157C150.121 25.469 149.347 27.2098 150.134 28.6504C150.731 29.7432 151.941 30.2513 153.336 29.6684Z" fill="#172941"/>
<path d="M151.905 28.6616C151.905 28.7931 151.905 28.8919 151.905 28.9994C151.645 28.9994 151.421 28.9994 151.174 28.9994C151.174 28.0327 151.174 27.0667 151.174 26.0634C151.69 26.0634 152.224 26.0194 152.747 26.0768C153.192 26.1257 153.478 26.4577 153.537 26.9022C153.593 27.3301 153.435 27.7048 153.055 27.9783C153.215 28.2987 153.376 28.6224 153.569 29.0085C153.269 29.0085 153.077 29.0169 152.886 29.0036C152.827 28.9995 152.751 28.9504 152.717 28.899C152.615 28.7432 152.521 28.5802 152.44 28.4126C152.335 28.1988 152.23 28.0038 151.905 28.158C151.905 28.2915 151.905 28.4601 151.905 28.6616ZM151.908 26.7285C151.908 26.9541 151.908 27.1797 151.908 27.4286C152.101 27.4286 152.282 27.4679 152.433 27.417C152.57 27.3706 152.747 27.241 152.772 27.1206C152.793 27.0162 152.65 26.8138 152.533 26.7614C152.359 26.6839 152.144 26.701 151.908 26.7285Z" fill="#172941"/>
</svg>
