<svg width="14" height="14" viewBox="0 0 14 14" fill="none" xmlns="http://www.w3.org/2000/svg">
<path d="M6.38796 1.08514C6.61956 0.548442 7.38057 0.548442 7.61218 1.08514L9.06553 4.45307C9.16359 4.68032 9.37949 4.83454 9.62627 4.85361L13.3534 5.14161C13.9514 5.18781 14.189 5.93852 13.7265 6.32038L10.9235 8.63456C10.7258 8.79779 10.6392 9.05994 10.7008 9.30881L11.5635 12.7944C11.7053 13.3676 11.087 13.8286 10.5781 13.529L7.33828 11.6217C7.12955 11.4988 6.87059 11.4988 6.66185 11.6217L3.42203 13.529C2.91316 13.8286 2.29481 13.3676 2.43667 12.7944L3.2993 9.30881C3.36089 9.05994 3.27431 8.79779 3.0766 8.63456L0.273679 6.32038C-0.188826 5.93852 0.0487766 5.18781 0.646768 5.14161L4.37387 4.85361C4.62065 4.83454 4.83655 4.68032 4.93461 4.45307L6.38796 1.08514Z" fill="#23262F"/>
</svg>
