<svg width="20" height="16" viewBox="0 0 20 16" fill="none" xmlns="http://www.w3.org/2000/svg">
<path fill-rule="evenodd" clip-rule="evenodd" d="M2.65067 9.6665C1.27257 9.67042 0.382969 11.2403 1.23197 12.4298C2.44782 14.133 4.65261 15.5 8.33346 15.5C14.0377 15.5 18.6165 10.8514 17.9755 5.35925L18.9146 3.48108C19.5659 2.17857 18.4342 0.69685 17.0062 0.98245L15.7655 1.23057C15.4366 1.05702 15.0962 0.926058 14.8053 0.831175C14.2383 0.646267 13.552 0.5 12.9168 0.5C11.7757 0.5 10.7909 0.792758 10.0082 1.37994C9.23446 1.96053 8.79863 2.72354 8.55946 3.42421C8.44921 3.74717 8.37579 4.07112 8.32868 4.38203C7.88596 4.24269 7.43453 4.05522 6.99258 3.82629C5.98992 3.30693 5.17912 2.64852 4.72175 2.07126C3.95439 1.10275 2.32819 1.17456 1.75754 2.43351C0.953258 4.20789 1.17388 6.31122 1.89683 8.01075C2.13915 8.58033 2.45436 9.14342 2.83945 9.66525C2.77352 9.666 2.71046 9.66633 2.65067 9.6665ZM8.33337 13.8333C5.11392 13.8333 3.4492 12.6672 2.58841 11.4614C2.54973 11.4072 2.58873 11.3333 2.65529 11.3332C3.53099 11.3307 5.32849 11.2892 6.51399 10.5954C6.5753 10.5595 6.56181 10.4691 6.49447 10.4465C3.731 9.51733 2.16014 5.58216 3.27546 3.12158C3.30103 3.06517 3.37687 3.05772 3.41534 3.10628C4.6894 4.71432 7.47507 6.28933 9.89871 6.33242C9.95129 6.33333 9.99104 6.28558 9.98304 6.23361C9.88538 5.60044 9.51246 2.16667 12.9167 2.16667C13.7296 2.16667 14.9391 2.56319 15.3846 2.96942C15.4052 2.98819 15.4331 2.99672 15.4605 2.99125L17.333 2.61675C17.401 2.60315 17.4549 2.67371 17.4239 2.73573L16.2625 5.05849C16.2544 5.07462 16.2519 5.09312 16.255 5.11088C17.0684 9.68333 13.3234 13.8333 8.33337 13.8333Z" fill="#777E91"/>
</svg>
